<svg xmlns="http://www.w3.org/2000/svg" aria-hidden="true" style="position:absolute;width:0;height:0;overflow:hidden">
  <defs>
    <symbol id="icon-bell" viewBox="0 0 29 32">
      <path fill="#fff" d="M14.667 32a4.003 4.003 0 0 0 4-4h-8a4.003 4.003 0 0 0 4 4zm0-28.164-1.594.322A8.005 8.005 0 0 0 6.667 12c0 1.256-.268 4.394-.918 7.484-.32 1.534-.752 3.132-1.326 4.516h20.488c-.574-1.384-1.004-2.98-1.326-4.516-.65-3.09-.918-6.228-.918-7.484a7.998 7.998 0 0 0-6.406-7.84l-1.594-.324zM27.107 24c.446.894.962 1.602 1.56 2h-28c.598-.398 1.114-1.106 1.56-2 1.8-3.6 2.44-10.24 2.44-12 0-4.84 3.44-8.88 8.01-9.802a2 2 0 1 1 3.98 0A10.007 10.007 0 0 1 24.667 12c0 1.76.64 8.4 2.44 12z" style="fill:var(--color1, #fff)"/>
    </symbol>
    <symbol id="icon-attention-sign" viewBox="0 0 35 32">
      <path fill="#fff" d="M17.319 2.944a.297.297 0 0 1 .277 0 .32.32 0 0 1 .118.124l14.961 25.455a.38.38 0 0 1 .004.399.354.354 0 0 1-.118.131.259.259 0 0 1-.144.037H2.5a.25.25 0 0 1-.144-.037.354.354 0 0 1-.118-.131.383.383 0 0 1 .004-.399L17.2 3.068a.32.32 0 0 1 .118-.124zm2.278-.982A2.46 2.46 0 0 0 17.458.724a2.475 2.475 0 0 0-2.138 1.238L.359 27.417c-.997 1.697.199 3.855 2.138 3.855h29.919c1.94 0 3.137-2.16 2.138-3.855L19.595 1.962z" style="fill:var(--color1, #fff)"/>
      <path fill="#fff" d="M15.277 24.727a2.175 2.175 0 0 1 .639-1.543 2.183 2.183 0 1 1-.639 1.543zm.214-13.102a1.967 1.967 0 0 1 .496-1.528 1.97 1.97 0 0 1 3.344.711c.085.263.114.542.086.817l-.764 7.652a1.206 1.206 0 0 1-2.015.785 1.197 1.197 0 0 1-.385-.785l-.764-7.652z" style="fill:var(--color1, #fff)"/>
    </symbol>
    <symbol id="icon-check-mark" viewBox="0 0 35 32">
      <path fill="#fff" d="M2.8 16A13.2 13.2 0 0 1 22.6 4.566a1.2 1.2 0 0 0 1.201-2.078A15.601 15.601 0 0 0 2.49 23.796a15.598 15.598 0 0 0 29.11-7.797 1.2 1.2 0 0 0-2.4 0 13.203 13.203 0 0 1-13.2 13.2 13.203 13.203 0 0 1-13.2-13.2z" style="fill:var(--color1, #fff)"/>
      <path fill="#fff" d="M33.65 4.85a1.19 1.19 0 0 0 .351-.85 1.21 1.21 0 0 0-.351-.85 1.21 1.21 0 0 0-1.7 0L16 19.103 9.65 12.75a1.19 1.19 0 0 0-.85-.351 1.21 1.21 0 0 0-.85.351 1.19 1.19 0 0 0-.351.85 1.21 1.21 0 0 0 .351.85l7.2 7.2a1.198 1.198 0 0 0 1.7 0l16.8-16.8z" style="fill:var(--color1, #fff)"/>
    </symbol>
    <symbol id="icon-brick" viewBox="0 0 32 32">
      <path fill="#fafafb" d="M9.08.292A.998.998 0 0 1 9.786 0h12.428c.265 0 .519.105.706.292l8.788 8.788a.998.998 0 0 1 .292.706v12.428a.998.998 0 0 1-.292.706l-8.788 8.788a.998.998 0 0 1-.706.292H9.786a.998.998 0 0 1-.706-.292L.292 22.92A.998.998 0 0 1 0 22.214V9.786c0-.265.105-.519.292-.706L9.08.292zM10.2 2 2 10.2v11.6l8.2 8.2h11.6l8.2-8.2V10.2L21.8 2H10.2z" style="fill:var(--color2, #fafafb)"/>
      <path fill="#fafafb" d="M9.292 9.292A.991.991 0 0 1 10 8.999a1.002 1.002 0 0 1 .708.293L16 14.586l5.292-5.294A.991.991 0 0 1 22 8.999a1.006 1.006 0 0 1 .925.618 1.01 1.01 0 0 1 0 .766c-.05.121-.124.232-.217.325L17.414 16l5.294 5.292a.991.991 0 0 1 .293.708 1.006 1.006 0 0 1-.618.925 1.006 1.006 0 0 1-1.091-.217L16 17.414l-5.292 5.294a.991.991 0 0 1-.708.293 1.006 1.006 0 0 1-.925-.618 1.006 1.006 0 0 1 .217-1.091L14.586 16l-5.294-5.292A.991.991 0 0 1 8.999 10a1.002 1.002 0 0 1 .293-.708z" style="fill:var(--color2, #fafafb)"/>
    </symbol>
  </defs>
</svg>
